<svg
			data-v-851374ea=""
			aria-hidden="true"
			xmlns="http://www.w3.org/2000/svg"
			width="19.757"
			height="17.414"
			viewBox="0 0 19.757 17.414"
			class=""
		>
			<g>
				<path
					d="M9.879 11.776a10.383 10.383 0 0 1-3.162-.5l1.56-1.555a4.131 4.131 0 0 0 1.605.321c.089 0 .179 0 .268-.008a4.156 4.156 0 0 0 3.564-5.75l2.32-2.32A15.1 15.1 0 0 1 19.6 5.423a.784.784 0 0 1 0 .934c-2.628 3.495-6.082 5.419-9.721 5.419zm-5.231-1.4A14.515 14.515 0 0 1 .156 6.352a.781.781 0 0 1 0-.933C2.787 1.924 6.241 0 9.879 0a10.5 10.5 0 0 1 4.245.9l-1.7 1.7a4.117 4.117 0 0 0-2.547-.871c-.089 0-.179 0-.268.008A4.154 4.154 0 0 0 6.6 8.432l-1.951 1.947zm5.231-2.253 2.241-2.245v.008c0 .047 0 .095-.006.142a2.239 2.239 0 0 1-2.09 2.089 1.722 1.722 0 0 1-.145.006zM7.972 7.056a2.242 2.242 0 0 1 1.767-3.4h.144a2.238 2.238 0 0 1 1.17.329l-3.08 3.07z"
					transform="translate(-.001 3.159)"
					style="fill: rgb(114, 134, 168)"
				></path>
				<path
					transform="translate(1.101 .707)"
					d="M16 0 0 16"
					style="fill: none; stroke: rgb(114, 134, 168); stroke-width: 2px"
				></path>
			</g></svg>