		<svg
			data-v-851374ea=""
			aria-hidden="true"
			xmlns="http://www.w3.org/2000/svg"
			width="19.756"
			height="11.777"
			viewBox="0 0 19.756 11.777"
			class=""
		>
			<path
				d="M9.878 98.725c-3.775 0-7.2 2.065-9.724 5.42a.782.782 0 0 0 0 .934C2.68 108.437 6.1 110.5 9.878 110.5s7.2-2.065 9.724-5.42a.782.782 0 0 0 0-.934c-2.526-3.356-5.949-5.421-9.724-5.421zm.271 10.035a4.156 4.156 0 1 1 3.876-3.876 4.158 4.158 0 0 1-3.876 3.876zm-.125-1.916a2.238 2.238 0 1 1 2.089-2.09 2.234 2.234 0 0 1-2.089 2.091z"
				transform="translate(0 -98.725)"
				style="fill: rgb(114, 134, 168)"
			></path></svg>